<svg xmlns="http://www.w3.org/2000/svg" width="80" height="80" viewBox="0 0 80 80" role="img" aria-label="Cat avatar">
  <rect width="80" height="80" fill="#fde68a"/>
  <polygon points="20,31 24,9 41,27" fill="#6b7280"/>
  <polygon points="60,31 56,9 39,27" fill="#6b7280"/>
  <polygon points="25,28 27,15 36,26" fill="#f9a8d4"/>
  <polygon points="55,28 53,15 44,26" fill="#f9a8d4"/>
  <ellipse cx="40" cy="46" rx="26" ry="23" fill="#6b7280"/>
  <circle cx="31" cy="44" r="5" fill="#fff"/><circle cx="32" cy="44" r="2.6" fill="#22223b"/><circle cx="49" cy="44" r="5" fill="#fff"/><circle cx="50" cy="44" r="2.6" fill="#22223b"/>
  <path d="M37 49 h6 l-3 4 z" fill="#fb7185"/>
  <path d="M40 53 q-4 4 -8 1" stroke="#3f3f46" stroke-width="1.6" fill="none" stroke-linecap="round"/><path d="M40 53 q4 4 8 1" stroke="#3f3f46" stroke-width="1.6" fill="none" stroke-linecap="round"/>
  <g stroke="#3f3f46" stroke-width="1.2" stroke-linecap="round">
    <line x1="13" y1="47" x2="27" y2="49"/>
    <line x1="13" y1="53" x2="27" y2="53"/>
    <line x1="67" y1="47" x2="53" y2="49"/>
    <line x1="67" y1="53" x2="53" y2="53"/>
  </g>
</svg>
